<mxfile host="app.diagrams.net" modified="2024-05-12T22:36:14.557Z" agent="Mozilla/5.0 (Windows NT 10.0; Win64; x64) AppleWebKit/537.36 (KHTML, like Gecko) Chrome/124.0.0.0 Safari/537.36 Edg/124.0.0.0" version="24.4.0" etag="GiDclEE2wAk1voOUB5fe" type="github">
  <diagram name="PÃ¡gina-1" id="VHQbhnzFsISfAkjLUNRw">
    <mxGraphModel>
      <root>
        <mxCell id="0" />
        <mxCell id="1" parent="0" />
      </root>
    </mxGraphModel>
  </diagram>
</mxfile>
